# File created by Blade
# Date/Time:  Tue Sep 30 19:36:36 2014
#---------------------------------------------------------
:version 1.10
:name HOM
:units
  mass 1.0
  length 1.000000
  angle deg
:documentation
     Acclaim Skeleton File
:root
   axis xyz
   order TX TY TZ RX RY RZ
   position 0.000000 0.000000 0.000000
   orientation 0 0 0
:bonedata
   begin
      id 1
      name Spine_dum
      direction 0.000000 1.000000 0.000000
      length 3.241213
      axis 0.0 0.0 0.0 xyz
   end
   begin
      id 2
      name LeftUpLeg_dum
      direction 1.000000 0.000000 0.000000
      length 3.434019
      axis 0.0 0.0 0.0 xyz
   end
   begin
      id 3
      name RightUpLeg_dum
      direction -1.000000 0.000000 0.000000
      length 3.434019
      axis 0.0 0.0 0.0 xyz
   end
   begin
      id 4
      name Spine
      direction 0.000000 1.000000 0.000000
      length 0.000000
      axis 0.0 0.0 0.0 xyz
      dof rx ry rz
   end
   begin
      id 5
      name Spine_dum1
      direction 0.000000 1.000000 0.000000
      length 18.382958
      axis 0.0 0.0 0.0 xyz
   end
   begin
      id 6
      name Spine_dum2
      direction 0.000000 1.000000 0.000000
      length 12.828261
      axis 0.0 0.0 0.0 xyz
   end
   begin
      id 7
      name Spine_dum3
      direction 0.000000 1.000000 0.000000
      length 12.828261
      axis 0.0 0.0 0.0 xyz
   end
   begin
      id 8
      name Head
      direction 0.000000 1.000000 0.000000
      length 4.527550
      axis 0.0 0.0 0.0 xyz
      dof rx ry rz
   end
   begin
      id 9
      name LeftShoulder
      direction 1.000000 0.000000 0.000000
      length 7.748055
      axis 0.0 0.0 -90.0 xyz
      dof rx ry rz
   end
   begin
      id 10
      name LeftArm
      direction 1.000000 0.000000 0.000000
      length 10.635614
      axis 0.0 0.0 -90.0 xyz
      dof rx ry rz
   end
   begin
      id 11
      name LeftForeArm
      direction 1.000000 0.000000 0.000000
      length 8.346755
      axis 0.0 0.0 -90.0 xyz
      dof ry rz rx
   end
   begin
      id 12
      name LeftHand
      direction 0.000000 0.000000 0.000000
      length 0.000000
      axis 0.0 0.0 -90.0 xyz
      dof rx ry rz
   end
   begin
      id 13
      name LeftHand_dum1
      direction 0.000000 0.000000 0.000000
      length 0.000000
      axis 0.0 0.0 -90.0 xyz
   end
   begin
      id 14
      name LeftHand_dum2
      direction 1.000000 0.000000 0.000000
      length 3.937000
      axis 0.0 0.0 -90.0 xyz
   end
   begin
      id 15
      name LeftHandThumb1
      direction 0.000000 0.000000 1.000000
      length 3.937000
      axis 0.0 0.0 -90.0 xyz
      dof rx rz ry
   end
   begin
      id 16
      name RightShoulder
      direction -1.000000 0.000000 0.000000
      length 7.748055
      axis 0.0 0.0 90.0 xyz
      dof rx ry rz
   end
   begin
      id 17
      name RightArm
      direction -1.000000 0.000000 0.000000
      length 10.635614
      axis 0.0 0.0 90.0 xyz
      dof rx ry rz
   end
   begin
      id 18
      name RightForeArm
      direction -1.000000 0.000000 0.000000
      length 8.346755
      axis 0.0 0.0 90.0 xyz
      dof ry rz rx
   end
   begin
      id 19
      name RightHand
      direction 0.000000 0.000000 0.000000
      length 0.000000
      axis 0.0 0.0 90.0 xyz
      dof rx ry rz
   end
   begin
      id 20
      name RightHand_dum1
      direction 0.000000 0.000000 0.000000
      length 0.000000
      axis 0.0 0.0 90.0 xyz
   end
   begin
      id 21
      name RightHand_dum2
      direction -1.000000 0.000000 0.000000
      length 3.937000
      axis 0.0 0.0 90.0 xyz
   end
   begin
      id 22
      name RightHandThumb1
      direction 0.000000 0.000000 1.000000
      length 3.937000
      axis 0.0 0.0 90.0 xyz
      dof rx rz ry
   end
   begin
      id 23
      name LeftUpLeg
      direction 0.000000 -1.000000 0.000000
      length 15.713025
      axis 0.0 0.0 0.0 xyz
      dof rx ry rz
   end
   begin
      id 24
      name LeftLeg
      direction 0.000000 -1.000000 0.000000
      length 14.435119
      axis 0.0 0.0 0.0 xyz
      dof rx ry rz
   end
   begin
      id 25
      name LeftFoot
      direction 0.000000 -0.258819 0.965926
      length 4.938895
      axis 15.0 0.0 0.0 xyz
      dof rx ry rz
   end
   begin
      id 26
      name LeftToeBase
      direction 0.000000 0.000000 1.000000
      length 2.952750
      axis 0.0 0.0 0.0 xyz
      dof rx ry rz
   end
   begin
      id 27
      name RightUpLeg
      direction 0.000000 -1.000000 0.000000
      length 15.713025
      axis 0.0 0.0 0.0 xyz
      dof rx ry rz
   end
   begin
      id 28
      name RightLeg
      direction 0.000000 -1.000000 0.000000
      length 14.435119
      axis 0.0 0.0 0.0 xyz
      dof rx ry rz
   end
   begin
      id 29
      name RightFoot
      direction 0.000000 -0.258819 0.965926
      length 4.938895
      axis 15.0 0.0 0.0 xyz
      dof rx ry rz
   end
   begin
      id 30
      name RightToeBase
      direction 0.000000 0.000000 1.000000
      length 2.952750
      axis 0.0 0.0 0.0 xyz
      dof rx ry rz
   end
:hierarchy
   begin
      root Spine_dum LeftUpLeg_dum RightUpLeg_dum
      Spine_dum Spine
      LeftUpLeg_dum LeftUpLeg
      RightUpLeg_dum RightUpLeg
      Spine Spine_dum1 Spine_dum2 Spine_dum3
      Spine_dum1 Head
      Spine_dum2 LeftShoulder
      Spine_dum3 RightShoulder
      LeftShoulder LeftArm
      LeftArm LeftForeArm
      LeftForeArm LeftHand
      LeftHand LeftHand_dum1 LeftHand_dum2
      LeftHand_dum1 LeftHandThumb1
      RightShoulder RightArm
      RightArm RightForeArm
      RightForeArm RightHand
      RightHand RightHand_dum1 RightHand_dum2
      RightHand_dum1 RightHandThumb1
      LeftUpLeg LeftLeg
      LeftLeg LeftFoot
      LeftFoot LeftToeBase
      RightUpLeg RightLeg
      RightLeg RightFoot
      RightFoot RightToeBase
   end

# File created by Blade
# Date/Time:  Tue Sep 23 19:22:32 2014
# Frame Rate: 120.000 fps
#------------------------------------------------------
:FULLY-SPECIFIED
:DEGREES
159
root 1.898473 33.210195 3.181819 47.732888 11.810910 -14.796879
Spine -48.542067 -16.607969 26.914064
Head -3.920213 3.136300 16.397910
LeftShoulder -13.389392 45.365779 20.717905
LeftArm 43.089438 -17.944023 -80.411522
LeftForeArm 45.181306 0.000000 92.236085
LeftHand 23.885023 -0.000000 30.139970
LeftHandThumb1 -26.253704 0.000000 33.147579
RightShoulder -43.814313 -54.125941 14.887205
RightArm 38.315151 18.561414 98.044466
RightForeArm 88.383165 -0.000000 -5.620444
RightHand 20.298753 -0.000000 2.301115
RightHandThumb1 -24.326973 -0.000000 -32.862282
LeftUpLeg -48.288936 1.535317 14.087391
LeftLeg 9.836895 -0.000000 -0.000000
LeftFoot -8.466824 1.302992 7.505031
LeftToeBase -0.003671 -0.000000 0.000000
RightUpLeg -30.676196 10.984939 -15.639072
RightLeg 117.332388 -0.000000 -0.000000
RightFoot 42.456833 10.822344 12.641265
RightToeBase 34.873765 -0.000000 -0.000000
160
root 1.897996 33.231248 3.196258 48.069373 11.989797 -14.990581
Spine -48.947831 -16.793804 27.536515
Head -3.899866 3.369821 16.638633
LeftShoulder -13.426160 45.465680 20.843608
LeftArm 42.698383 -17.817742 -80.471540
LeftForeArm 47.170356 -0.000000 92.385237
LeftHand 21.549242 -0.000000 32.189975
LeftHandThumb1 -26.253704 0.000000 33.147579
RightShoulder -44.085159 -53.971026 15.258998
RightArm 38.181173 19.216608 97.946891
RightForeArm 88.485686 -0.000000 -5.334028
RightHand 20.144499 -0.000000 3.894856
RightHandThumb1 -24.326973 -0.000000 -32.862282
LeftUpLeg -48.573093 1.886221 14.126911
LeftLeg 9.667096 -0.000000 -0.000000
LeftFoot -8.409580 1.006774 7.603539
LeftToeBase 0.198719 -0.000000 -0.000000
RightUpLeg -29.858820 11.362293 -15.680570
RightLeg 118.367432 -0.000000 -0.000000
RightFoot 42.736266 11.029142 12.348343
RightToeBase 35.207132 -0.000000 -0.000000
161
root 1.893332 33.249728 3.213376 48.322829 12.191110 -15.163553
Spine -49.274252 -17.041804 28.094266
Head -3.885104 3.568249 16.929866
LeftShoulder -13.401283 45.478394 21.033346
LeftArm 42.274761 -18.014605 -80.912100
LeftForeArm 46.906016 0.000000 92.667468
LeftHand 22.102526 -0.000000 31.765065
LeftHandThumb1 -26.253704 0.000000 33.147579
RightShoulder -44.389764 -53.767131 15.656234
RightArm 38.052275 19.781582 97.761408
RightForeArm 88.817976 -0.000000 -5.053098
RightHand 20.085949 -0.000000 5.451650
RightHandThumb1 -24.326973 -0.000000 -32.862282
LeftUpLeg -48.765209 2.182216 14.185074
LeftLeg 9.467715 -0.000000 -0.000000
LeftFoot -8.298925 0.677634 7.595879
LeftToeBase 0.168258 -0.000000 -0.000000
RightUpLeg -28.912849 11.608678 -15.603341
RightLeg 119.303859 -0.000000 -0.000000
RightFoot 42.962106 10.924821 11.921189
RightToeBase 35.509962 -0.000000 -0.000000
162
root 1.886517 33.269102 3.226983 48.626991 12.327602 -15.345101
Spine -49.628594 -17.220129 28.617032
Head -3.850092 3.760528 17.197429
LeftShoulder -13.309582 45.432167 21.266348
LeftArm 41.760932 -18.207120 -81.279992
LeftForeArm 47.004721 0.000000 92.940036
LeftHand 22.142345 -0.000000 31.854712
LeftHandThumb1 -26.253704 0.000000 33.147579
RightShoulder -44.651740 -53.558790 16.021020
RightArm 37.904177 20.456294 97.650778
RightForeArm 88.931867 0.000000 -4.615634
RightHand 20.082467 -0.000000 7.066049
RightHandThumb1 -24.326973 -0.000000 -32.862282
LeftUpLeg -48.990217 2.530028 14.207364
LeftLeg 9.256692 -0.000000 -0.000000
LeftFoot -8.173765 0.382090 7.600571
LeftToeBase 0.100013 -0.000000 -0.000000
RightUpLeg -28.072740 11.827856 -15.545029
RightLeg 120.195574 -0.000000 -0.000000
RightFoot 43.105871 10.518324 11.451284
RightToeBase 35.995915 -0.000000 -0.000000
163
root 1.886956 33.289235 3.232905 49.039658 12.442399 -15.556430
Spine -50.063737 -17.313184 29.227876
Head -3.841517 4.004897 17.380462
LeftShoulder -13.319259 45.431283 21.398390
LeftArm 41.325360 -18.376650 -81.638143
LeftForeArm 46.958870 -0.000000 93.226033
LeftHand 22.093392 0.000000 31.926545
LeftHandThumb1 -26.253704 0.000000 33.147579
RightShoulder -44.771153 -53.319952 16.196587
RightArm 37.740172 21.247597 97.641403
RightForeArm 88.876121 0.000000 -3.985666
RightHand 20.087245 0.000000 8.419103
RightHandThumb1 -24.326973 -0.000000 -32.862282
LeftUpLeg -49.336687 2.919936 14.217849
LeftLeg 9.059455 -0.000000 -0.000000
LeftFoot -8.048786 0.117612 7.638571
LeftToeBase 0.023174 -0.000000 -0.000000
RightUpLeg -27.382102 12.074159 -15.565430
RightLeg 121.026948 -0.000000 -0.000000
RightFoot 43.131557 10.295452 10.984460
RightToeBase 36.510267 -0.000000 -0.000000
